# xmcd
#
# Track frame offsets:
#	31466
#	43573
#	62103
#	75505
#	99270
#	114187
#	128606
#	144763
#	162578
#	177877
#	194865
#	212422
#
# Disc length: 3080 seconds
#
# Revision: 0
# Processed by: cddbd v1.4PL0 Copyright (c) Steve Scherf et al.
# Submitted via: dBpowerAMP V4.0
#
DISCID=a50a650c
DTITLE=Bai Kamara Jr. - Living Room - Intrinsic Equilibrium
DYEAR=2002
DGENRE=Blues
TTITLE0=Stay Right
TTITLE1=No More Fun and Games
TTITLE2=The State I'm In
TTITLE3=Go On Press
TTITLE4=I Wish For
TTITLE5=Everything Is Changing
TTITLE6=I Won't Fall Asleep
TTITLE7=The Wrong Words
TTITLE8=The Powers That Governs Us
TTITLE9=Downtown St Josse
TTITLE10=A Lonely Moment With You
TTITLE11=That's What I Think Of You
EXTD=Written, composed and produced by Bai Kamara Jr.
EXTT0=
EXTT1=
EXTT2=
EXTT3=
EXTT4=
EXTT5=
EXTT6=
EXTT7=
EXTT8=
EXTT9=
EXTT10=
EXTT11=
PLAYORDER=
